<svg xmlns="http://www.w3.org/2000/svg" viewBox="0 0 256 256" role="img" aria-label="Hạt giống ớt phong cách game thật"><defs><linearGradient id="bg" x1="0" y1="0" x2="0" y2="1"><stop offset="0" stop-color="#f7f0de"/><stop offset="1" stop-color="#ead6ae"/></linearGradient><radialGradient id="plate" cx="50%" cy="42%" r="58%"><stop offset="0" stop-color="#fff7ea"/><stop offset="1" stop-color="#e7cfa5"/></radialGradient><radialGradient id="seed" cx="38%" cy="35%" r="70%"><stop offset="0" stop-color="#fff9da"/><stop offset="1" stop-color="#d6b86d"/></radialGradient><linearGradient id="chiliRed" x1="0" y1="0" x2="1" y2="1"><stop offset="0" stop-color="#ff7a5f"/><stop offset="0.55" stop-color="#d62d1f"/><stop offset="1" stop-color="#8f1711"/></linearGradient><linearGradient id="chiliDark" x1="0" y1="0" x2="1" y2="1"><stop offset="0" stop-color="#ff6b52"/><stop offset="0.45" stop-color="#c92419"/><stop offset="1" stop-color="#78130f"/></linearGradient><linearGradient id="leaf" x1="0" y1="0" x2="1" y2="1"><stop offset="0" stop-color="#77d76c"/><stop offset="1" stop-color="#2f8a35"/></linearGradient><filter id="shadow" x="-20%" y="-20%" width="140%" height="140%"><feDropShadow dx="0" dy="7" stdDeviation="7" flood-color="#8b5f2a" flood-opacity="0.22"/></filter></defs><rect width="256" height="256" rx="56" fill="url(#bg)"/><ellipse cx="128" cy="191" rx="82" ry="22" fill="#7c5524" opacity="0.14"/><g filter="url(#shadow)"><ellipse cx="119" cy="150" rx="72" ry="43" fill="url(#plate)"/></g><g opacity="0.96"><ellipse cx="80" cy="151" rx="9" ry="6" transform="rotate(-18 80 151)" fill="url(#seed)"/><ellipse cx="93" cy="143" rx="8" ry="5.6" transform="rotate(12 93 143)" fill="url(#seed)"/><ellipse cx="104" cy="153" rx="8.5" ry="5.8" transform="rotate(-8 104 153)" fill="url(#seed)"/><ellipse cx="117" cy="146" rx="9" ry="6" transform="rotate(18 117 146)" fill="url(#seed)"/><ellipse cx="129" cy="157" rx="8.5" ry="5.8" transform="rotate(-16 129 157)" fill="url(#seed)"/><ellipse cx="141" cy="147" rx="8.2" ry="5.6" transform="rotate(8 141 147)" fill="url(#seed)"/><ellipse cx="153" cy="156" rx="8.8" ry="5.9" transform="rotate(-12 153 156)" fill="url(#seed)"/></g><g><path d="M172 78c8 0 15 2 22 8-8 3-14 8-18 16-4-8-5-15-4-24z" fill="url(#leaf)"/><path d="M183 92c11 16 9 34-6 54l-24 34c-11 15-25 18-40 8 2-19 10-34 23-47l21-20c10-10 19-19 26-29z" fill="url(#chiliDark)"/><path d="M176 99c7 11 5 25-5 40l-20 28c-9 12-19 16-31 12 3-11 9-20 18-29l18-18c7-8 14-19 20-33z" fill="#ff8d74" opacity="0.16"/><path d="M187 86c7 0 14 3 20 8-7 3-13 8-18 15-5-7-6-15-2-23z" fill="#4fb24f"/></g><g><path d="M204 103c6 1 13 4 18 10-8 1-15 5-22 11-2-7-1-14 4-21z" fill="url(#leaf)"/><path d="M212 115c8 12 9 26 3 41l-10 26c-8 21-21 31-39 32-4-17-2-31 4-43l11-24c6-13 16-24 31-32z" fill="url(#chiliRed)"/><path d="M205 121c5 8 5 18 0 30l-8 21c-5 13-12 22-22 27-2-11-1-21 3-29l10-22c4-10 10-19 17-27z" fill="#ff9d82" opacity="0.16"/></g><g><path d="M56 190c18-8 37-11 55-9-5 9-13 15-24 19-11 5-22 6-31 2z" fill="#6aa84f" opacity="0.18"/></g></svg>